<svg xmlns="http://www.w3.org/2000/svg" viewBox="0 0 198.33 198.33" xml:space="preserve"><g fill="none" stroke="#E5E5E5" stroke-width=".75"><path d="M83.09 94.23h32.16v23.59H83.09zm6.12 0v-5.74c0-5.5 4.46-9.96 9.96-9.96 5.5 0 9.96 4.46 9.96 9.96v5.74"/><path d="M130.83 138.83H67.5c-4.42 0-8-3.58-8-8V67.5c0-4.42 3.58-8 8-8h63.33c4.42 0 8 3.58 8 8v63.33c0 4.42-3.58 8-8 8z"/><path d="M146.67 158.67h-95c-6.63 0-12-5.37-12-12v-95c0-6.63 5.37-12 12-12h95c6.63 0 12 5.37 12 12v95c0 6.62-5.38 12-12 12z"/><path d="M162.5 178.5H35.83c-8.84 0-16-7.16-16-16V35.83c0-8.84 7.16-16 16-16H162.5c8.84 0 16 7.16 16 16V162.5c0 8.84-7.16 16-16 16z"/></g></svg>