<svg width="202" height="199" viewBox="0 0 202 199" fill="none" xmlns="http://www.w3.org/2000/svg">
<path d="M200.5 174.813C159.159 171.988 126.5 137.558 126.5 95.5C126.5 53.4421 159.159 19.0122 200.5 16.1873" stroke="white"/>
<path d="M200.5 147.715C174.09 144.966 153.5 122.637 153.5 95.5C153.5 68.3625 174.09 46.034 200.5 43.2846" stroke="white"/>
<path d="M201 121.529C188.755 119.191 179.5 108.426 179.5 95.5001C179.5 82.5738 188.755 71.8092 201 69.4711" stroke="white"/>
<path d="M1 16.1873C42.341 19.0121 75 53.4421 75 95.5C75 137.558 42.341 171.988 1 174.813" stroke="white"/>
<path d="M1 43.2847C27.41 46.0341 48 68.3625 48 95.5C48 122.638 27.41 144.966 1 147.715" stroke="white"/>
<path d="M0.5 69.4709C12.745 71.809 22 82.5737 22 95.4999C22 108.426 12.745 119.191 0.5 121.529" stroke="white"/>
<line x1="100" y1="2.18557e-08" x2="100" y2="199" stroke="white"/>
</svg>
