<svg width="200" height="204" viewBox="0 0 200 204" fill="none" xmlns="http://www.w3.org/2000/svg">
<path d="M134 1C108 19.5 85.5 64.6363 85.5 104C85.5 143.364 102.473 178.763 129.5 203.279" stroke="white"/>
<path d="M175 4.62109C138.541 22.8161 113.5 60.4837 113.5 104C113.5 147.516 138.541 185.184 175 203.379" stroke="white"/>
<path d="M199 24.9907C165.636 35.7506 141.5 67.0567 141.5 104C141.5 140.943 165.636 172.249 199 183.009" stroke="white"/>
<path d="M199.5 53.6865C181.135 62.7361 168.5 81.6425 168.5 103.5C168.5 125.357 181.135 144.264 199.5 153.313" stroke="white"/>
<path d="M66.5 1C92.5 19.5 115 64.6363 115 104C115 143.364 98.0269 178.763 71 203.279" stroke="white"/>
<path d="M25.5 4.62109C61.9587 22.8162 87 60.4837 87 104C87 147.516 61.9587 185.184 25.5 203.379" stroke="white"/>
<path d="M1.5 24.9907C34.8637 35.7506 59 67.0567 59 104C59 140.943 34.8637 172.249 1.5 183.009" stroke="white"/>
<path d="M1 53.6865C19.3648 62.7361 32 81.6425 32 103.5C32 125.357 19.3648 144.264 1 153.313" stroke="white"/>
</svg>
