<svg width="201" height="133" viewBox="0 0 201 133" fill="none" xmlns="http://www.w3.org/2000/svg">
<path d="M1.09158 47.5C24.7256 19.2043 60.2579 1.18634 100.009 1.14246C139.863 1.09846 175.516 19.1306 199.212 47.5" stroke="white"/>
<path d="M0.602328 103C12.3106 59.3359 52.1368 27.1654 99.5021 27.1131C148.381 27.0592 189.307 61.2267 199.614 107" stroke="white"/>
<path d="M180.155 132.034C180.107 87.8323 144.235 52.0396 100.034 52.0884C55.8322 52.1372 20.0396 88.009 20.0883 132.21" stroke="white"/>
<path d="M152 132C152 103.281 128.719 80 100 80C71.2812 80 48 103.281 48 132" stroke="white"/>
<path d="M127 132C127 117.088 114.912 105 100 105C85.0883 105 73 117.088 73 132" stroke="white"/>
</svg>
