<svg xmlns="http://www.w3.org/2000/svg" viewBox="0 0 198.33 198.33" xml:space="preserve"><g fill="none" stroke="#E5E5E5" stroke-width=".75"><path d="M99.17 224.6c-14.5 0-26.26-11.76-26.26-26.26s11.76-26.26 26.26-26.26 26.26 11.76 26.26 26.26c0 14.43-11.76 26.26-26.26 26.26z"/><path d="M99.17 250.86c-29.01 0-52.52-23.52-52.52-52.52s23.52-52.52 52.52-52.52 52.52 23.52 52.52 52.52c0 28.87-23.52 52.52-52.52 52.52z"/><path d="M99.17 277.12c-43.51 0-78.79-35.28-78.79-78.79s35.28-78.79 78.79-78.79 78.79 35.28 78.79 78.79c-.01 43.32-35.28 78.79-78.79 78.79z"/><path d="M99.17 303.38c-58.01 0-105.05-47.04-105.05-105.05S41.15 93.28 99.17 93.28s105.05 47.04 105.05 105.05c-.01 57.75-47.04 105.05-105.05 105.05z"/><path d="M99.17 329.64c-72.51 0-131.31-58.8-131.31-131.31S26.65 67.02 99.17 67.02s131.31 58.8 131.31 131.31c0 72.19-58.8 131.31-131.31 131.31z"/></g><linearGradient id="a" gradientUnits="userSpaceOnUse" x1="-1270.189" y1="5654.868" x2="-1276.751" y2="5674.254" gradientTransform="translate(2017.094 -8815.255) scale(1.5625)"><stop offset="0" style="stop-color:#114b8b"/><stop offset="1" style="stop-color:#1c6ab4"/></linearGradient><path fill="url(#a)" d="M28.82 18.15h9.87L28.45 48.51a1.58 1.58 0 0 1-1.49 1.07h-7.68c-.87 0-1.57-.7-1.57-1.57 0-.17.03-.34.08-.5l9.55-28.29c.21-.64.81-1.07 1.48-1.07z"/><path fill="#2F76BC" d="M43.17 38.51H27.52c-.4 0-.72.32-.73.72 0 .2.08.39.23.53l10.06 9.39c.29.27.68.43 1.08.43h8.86l-3.85-11.07z"/><linearGradient id="b" gradientUnits="userSpaceOnUse" x1="-1268.14" y1="5663.902" x2="-1269.658" y2="5664.416" gradientTransform="translate(2017.094 -8815.255) scale(1.5625)"><stop offset="0" style="stop-color:#010101;stop-opacity:.3"/><stop offset=".071" style="stop-color:#010101;stop-opacity:.2"/><stop offset=".321" style="stop-color:#010101;stop-opacity:.1"/><stop offset=".623" style="stop-color:#010101;stop-opacity:.05"/><stop offset="1" style="stop-color:#010101;stop-opacity:0"/></linearGradient><path fill="url(#b)" d="M28.82 18.15c-.68 0-1.29.44-1.5 1.09L17.8 47.48c-.29.82.13 1.71.95 2.01.17.06.35.09.53.09h7.88c.6-.11 1.09-.53 1.29-1.1l1.9-5.6 6.79 6.33c.28.24.64.37 1.01.37h8.83l-3.87-11.07H31.82l6.91-20.37h-9.91z"/><linearGradient id="c" gradientUnits="userSpaceOnUse" x1="-1268.927" y1="5654.285" x2="-1261.724" y2="5673.476" gradientTransform="translate(2017.094 -8815.255) scale(1.5625)"><stop offset="0" style="stop-color:#48c7f0"/><stop offset="1" style="stop-color:#3b90ce"/></linearGradient><path fill="url(#c)" d="M41.43 19.22a1.57 1.57 0 0 0-1.49-1.07h-11c.67 0 1.27.43 1.49 1.07l9.55 28.29a1.566 1.566 0 0 1-1.49 2.07h11c.87 0 1.57-.7 1.57-1.57 0-.17-.03-.34-.08-.5l-9.55-28.29z"/></svg>