<svg xmlns="http://www.w3.org/2000/svg" viewBox="0 0 198.33 198.33" xml:space="preserve"><g fill="none" stroke="#E5E5E5" stroke-width=".75"><path d="M222.69 154.66c-30.37 0-55-24.63-55-55s24.63-55 55-55 55 24.63 55 55c0 30.24-24.63 55-55 55z"/><path d="M222.69 182.16c-45.56 0-82.5-36.94-82.5-82.5s36.94-82.5 82.5-82.5 82.5 36.94 82.5 82.5c0 45.35-36.94 82.5-82.5 82.5z"/><path d="M222.69 209.66c-60.75 0-110-49.25-110-110s49.25-110 110-110 110 49.25 110 110c0 60.47-49.25 110-110 110z"/><path d="M222.69 237.16c-75.93 0-137.5-61.57-137.5-137.5s61.57-137.5 137.5-137.5 137.5 61.57 137.5 137.5c0 75.59-61.57 137.5-137.5 137.5zM-24.81 154.66c-30.37 0-55-24.63-55-55s24.63-55 55-55 55 24.63 55 55c0 30.24-24.63 55-55 55z"/><path d="M-24.81 182.16c-45.56 0-82.5-36.94-82.5-82.5s36.94-82.5 82.5-82.5 82.5 36.94 82.5 82.5c0 45.35-36.94 82.5-82.5 82.5z"/><path d="M-24.81 209.66c-60.75 0-110-49.25-110-110s49.25-110 110-110 110 49.25 110 110c0 60.47-49.25 110-110 110z"/><path d="M-24.81 237.16c-75.93 0-137.5-61.57-137.5-137.5s61.57-137.5 137.5-137.5 137.5 61.57 137.5 137.5c0 75.59-61.57 137.5-137.5 137.5z"/></g></svg>