<svg xmlns="http://www.w3.org/2000/svg" viewBox="0 0 198.33 198.33" xml:space="preserve"><g fill="none" stroke="#E5E5E5" stroke-width=".75"><path d="M204.92 121.92c-14.5 0-26.26-11.76-26.26-26.26s11.76-26.26 26.26-26.26c14.5 0 26.26 11.76 26.26 26.26 0 14.44-11.76 26.26-26.26 26.26z"/><path d="M204.92 148.18c-29.01 0-52.52-23.52-52.52-52.52s23.52-52.52 52.52-52.52c29.01 0 52.52 23.52 52.52 52.52 0 28.88-23.52 52.52-52.52 52.52z"/><path d="M204.92 174.45c-43.51 0-78.79-35.28-78.79-78.79s35.28-78.79 78.79-78.79c43.51 0 78.79 35.28 78.79 78.79-.01 43.31-35.28 78.79-78.79 78.79zM99.17 0v198.33M-5.18 121.92c-14.5 0-26.26-11.76-26.26-26.26S-19.68 69.4-5.18 69.4s26.26 11.76 26.26 26.26c0 14.44-11.76 26.26-26.26 26.26z"/><path d="M-5.18 148.18c-29.01 0-52.52-23.52-52.52-52.52s23.52-52.52 52.52-52.52 52.52 23.52 52.52 52.52c0 28.88-23.51 52.52-52.52 52.52z"/><path d="M-5.18 174.45c-43.51 0-78.79-35.28-78.79-78.79s35.28-78.79 78.79-78.79 78.79 35.28 78.79 78.79c0 43.31-35.28 78.79-78.79 78.79z"/></g></svg>