<svg xmlns="http://www.w3.org/2000/svg" viewBox="0 0 198.33 198.33" xml:space="preserve"><g fill="none" stroke="#E5E5E5" stroke-width=".75"><path d="M99.17 224.6c-14.5 0-26.26-11.76-26.26-26.26s11.76-26.26 26.26-26.26 26.26 11.76 26.26 26.26c0 14.43-11.76 26.26-26.26 26.26z"/><path d="M99.17 250.86c-29.01 0-52.52-23.52-52.52-52.52s23.52-52.52 52.52-52.52 52.52 23.52 52.52 52.52c0 28.87-23.52 52.52-52.52 52.52z"/><path d="M99.17 277.12c-43.51 0-78.79-35.28-78.79-78.79s35.28-78.79 78.79-78.79 78.79 35.28 78.79 78.79c-.01 43.32-35.28 78.79-78.79 78.79z"/><path d="M99.17 303.38c-58.01 0-105.05-47.04-105.05-105.05S41.15 93.28 99.17 93.28s105.05 47.04 105.05 105.05c-.01 57.75-47.04 105.05-105.05 105.05z"/><path d="M99.17 329.64c-72.51 0-131.31-58.8-131.31-131.31S26.65 67.02 99.17 67.02s131.31 58.8 131.31 131.31c0 72.19-58.8 131.31-131.31 131.31z"/></g><path fill="#E5E5E5" d="M32.37 32.25c0 .62.07 1.12.18 1.48.13.37.3.77.53 1.2.08.13.12.27.12.38 0 .17-.1.33-.32.5l-1.05.7c-.15.1-.3.15-.43.15-.17 0-.33-.08-.5-.23-.23-.25-.43-.52-.6-.78-.17-.28-.33-.6-.52-.98-1.3 1.53-2.93 2.3-4.89 2.3-1.4 0-2.51-.4-3.33-1.2s-1.23-1.86-1.23-3.2c0-1.42.5-2.56 1.52-3.43 1.02-.87 2.36-1.3 4.08-1.3.57 0 1.15.05 1.76.13.62.08 1.25.22 1.91.37v-1.22c0-1.27-.27-2.15-.78-2.66-.53-.52-1.43-.77-2.71-.77-.58 0-1.18.07-1.8.22s-1.22.33-1.8.57c-.27.12-.47.18-.58.22s-.2.05-.27.05c-.23 0-.35-.17-.35-.52v-.82c0-.27.03-.47.12-.58.08-.12.23-.23.47-.35.58-.3 1.28-.55 2.1-.75a9.96 9.96 0 0 1 2.6-.32c1.98 0 3.43.45 4.36 1.35.92.9 1.38 2.26 1.38 4.1v5.39h.03zm-6.76 2.53c.55 0 1.12-.1 1.71-.3.6-.2 1.13-.57 1.58-1.07.27-.32.47-.67.57-1.07.1-.4.17-.88.17-1.45v-.7c-.48-.12-1-.22-1.53-.28-.53-.07-1.05-.1-1.57-.1-1.12 0-1.93.22-2.48.67-.55.45-.82 1.08-.82 1.91 0 .78.2 1.37.62 1.76.41.43.99.63 1.75.63zm13.37 1.8c-.3 0-.5-.05-.63-.17-.13-.1-.25-.33-.35-.65l-3.91-12.87c-.1-.33-.15-.55-.15-.67 0-.27.13-.42.4-.42h1.63c.32 0 .53.05.65.17.13.1.23.33.33.65l2.8 11.02 2.6-11.02c.08-.33.18-.55.32-.65.13-.1.37-.17.67-.17h1.33c.32 0 .53.05.67.17.13.1.25.33.32.65l2.63 11.16 2.88-11.16c.1-.33.22-.55.33-.65.13-.1.35-.17.65-.17h1.55c.27 0 .42.13.42.42 0 .08-.02.17-.03.27-.02.1-.05.23-.12.42l-4.01 12.87c-.1.33-.22.55-.35.65-.13.1-.35.17-.63.17h-1.43c-.32 0-.53-.05-.67-.17-.13-.12-.25-.33-.32-.67l-2.58-10.74-2.58 10.72c-.08.33-.18.55-.32.67s-.37.17-.67.17h-1.43zm21.4.45c-.87 0-1.73-.1-2.56-.3-.83-.2-1.48-.42-1.91-.67-.27-.15-.45-.32-.52-.47-.07-.15-.1-.32-.1-.47v-.85c0-.35.13-.52.38-.52.1 0 .2.02.3.05.1.03.25.1.42.17.57.25 1.18.45 1.83.58.67.13 1.32.2 1.98.2 1.05 0 1.86-.18 2.43-.55.57-.37.87-.9.87-1.58 0-.47-.15-.85-.45-1.17-.3-.32-.87-.6-1.68-.87l-2.41-.75c-1.22-.38-2.11-.95-2.66-1.7-.55-.73-.83-1.55-.83-2.41 0-.7.15-1.32.45-1.85.3-.53.7-1 1.2-1.37.5-.38 1.07-.67 1.73-.87.67-.2 1.37-.28 2.1-.28.37 0 .75.02 1.12.07.38.05.73.12 1.08.18.33.08.65.17.95.27.3.1.53.2.7.3.23.13.4.27.5.42.1.13.15.32.15.55v.78c0 .35-.13.53-.38.53-.13 0-.35-.07-.63-.2-.95-.43-2.01-.65-3.2-.65-.95 0-1.7.15-2.21.47-.52.32-.78.8-.78 1.48 0 .47.17.87.5 1.18.33.32.95.63 1.83.92l2.36.75c1.2.38 2.06.92 2.58 1.6s.77 1.47.77 2.33c0 .72-.15 1.37-.43 1.93-.3.57-.7 1.07-1.22 1.47-.52.42-1.13.72-1.85.93-.78.25-1.56.37-2.41.37z"/><g fill-rule="evenodd" clip-rule="evenodd" fill="#F8991D"><path d="M63.52 45.12c-5.48 4.05-13.44 6.19-20.28 6.19-9.59 0-18.23-3.55-24.76-9.44-.52-.47-.05-1.1.57-.73 7.06 4.1 15.77 6.58 24.77 6.58 6.08 0 12.75-1.27 18.9-3.86.92-.42 1.7.59.8 1.26z"/><path d="M65.81 42.52c-.7-.9-4.63-.43-6.41-.22-.53.07-.62-.4-.13-.75 3.13-2.2 8.27-1.57 8.87-.83.6.75-.17 5.89-3.1 8.36-.45.38-.88.18-.68-.32.66-1.64 2.15-5.36 1.45-6.24z"/></g></svg>
