<svg xmlns="http://www.w3.org/2000/svg" viewBox="0 0 198.33 198.33" xml:space="preserve"><g fill="none" stroke="#E5E5E5" stroke-width=".75"><path d="M99.17 224.6c-14.5 0-26.26-11.76-26.26-26.26s11.76-26.26 26.26-26.26 26.26 11.76 26.26 26.26c0 14.43-11.76 26.26-26.26 26.26z"/><path d="M99.17 250.86c-29.01 0-52.52-23.52-52.52-52.52s23.52-52.52 52.52-52.52 52.52 23.52 52.52 52.52c0 28.87-23.52 52.52-52.52 52.52z"/><path d="M99.17 277.12c-43.51 0-78.79-35.28-78.79-78.79s35.28-78.79 78.79-78.79 78.79 35.28 78.79 78.79c-.01 43.32-35.28 78.79-78.79 78.79z"/><path d="M99.17 303.38c-58.01 0-105.05-47.04-105.05-105.05S41.15 93.28 99.17 93.28s105.05 47.04 105.05 105.05c-.01 57.75-47.04 105.05-105.05 105.05z"/><path d="M99.17 329.64c-72.51 0-131.31-58.8-131.31-131.31S26.65 67.02 99.17 67.02s131.31 58.8 131.31 131.31c0 72.19-58.8 131.31-131.31 131.31z"/></g><path fill="#EA4535" d="m42.79 25.16 3.42-3.42.23-1.44c-6.23-5.66-16.13-5.02-21.74 1.34-1.56 1.77-2.72 3.97-3.33 6.24l1.22-.17 6.83-1.13.53-.54c3.04-3.34 8.18-3.79 11.69-.95l1.15.07z"/><path fill="#557EBF" d="M51.08 27.78c-.79-2.89-2.4-5.49-4.64-7.48l-4.8 4.8a8.504 8.504 0 0 1 3.13 6.76v.85c2.36 0 4.27 1.91 4.27 4.27 0 2.36-1.91 4.22-4.27 4.22h-8.55l-.84.91v5.12l.84.8h8.55c6.13.05 11.14-4.84 11.19-10.97.03-3.71-1.81-7.2-4.88-9.28"/><path fill="#36A852" d="M27.68 48.04h8.54V41.2h-8.54c-.61 0-1.2-.13-1.75-.38l-1.21.37-3.44 3.42-.3 1.16c1.93 1.46 4.28 2.28 6.7 2.27"/><path fill="#F9BC15" d="M27.68 25.86c-6.13.04-11.07 5.04-11.04 11.17a11.13 11.13 0 0 0 4.33 8.74l4.95-4.95c-2.15-.97-3.1-3.5-2.13-5.65a4.269 4.269 0 0 1 7.78 0l4.95-4.95a11.06 11.06 0 0 0-8.84-4.36"/></svg>