<svg width="198" height="160" viewBox="0 0 198 160" fill="none" xmlns="http://www.w3.org/2000/svg">
<line x1="170" y1="159.5" x2="183" y2="159.5" stroke="white"/>
<line x1="148" y1="159.5" x2="161" y2="159.5" stroke="white"/>
<line x1="127" y1="159.5" x2="140" y2="159.5" stroke="white"/>
<line x1="127" y1="119.5" x2="140" y2="119.5" stroke="white"/>
<line x1="148" y1="119.5" x2="161" y2="119.5" stroke="white"/>
<line x1="170" y1="119.5" x2="183" y2="119.5" stroke="white"/>
<line x1="127" y1="80.5" x2="140" y2="80.5" stroke="white"/>
<line x1="148" y1="80.5" x2="161" y2="80.5" stroke="white"/>
<line x1="170" y1="80.5" x2="183" y2="80.5" stroke="white"/>
<line x1="127" y1="40.5" x2="140" y2="40.5" stroke="white"/>
<line x1="148" y1="40.5" x2="161" y2="40.5" stroke="white"/>
<line x1="170" y1="40.5" x2="183" y2="40.5" stroke="white"/>
<line x1="170" y1="0.5" x2="183" y2="0.5" stroke="white"/>
<line x1="148" y1="0.5" x2="161" y2="0.5" stroke="white"/>
<line x1="127" y1="0.5" x2="140" y2="0.5" stroke="white"/>
<line y1="139.5" x2="198" y2="139.5" stroke="white"/>
<line y1="100.5" x2="198" y2="100.5" stroke="white"/>
<line y1="60.5" x2="198" y2="60.5" stroke="white"/>
<line y1="20.5" x2="198" y2="20.5" stroke="white"/>
</svg>
