<svg width="149" height="39" viewBox="0 0 149 39" fill="none" xmlns="http://www.w3.org/2000/svg">
<mask id="path-1-outside-1_13_25" maskUnits="userSpaceOnUse" x="38" y="9" width="84" height="31" fill="black">
<rect fill="white" x="38" y="9" width="84" height="31"/>
<path d="M56.376 9.672V11.688H48.856V33H46.776V11.688H39.16V9.672H56.376ZM69.974 16.456V33H68.31L67.99 29.928H67.766C66.87 31.912 64.694 33.32 62.038 33.32C58.774 33.32 56.566 31.176 56.566 27.08V16.456H58.582V26.856C58.582 29.96 59.99 31.432 62.55 31.432C65.846 31.432 67.958 28.872 67.958 25.096V16.456H69.974ZM76.3013 28.04C76.3013 30.184 78.0293 31.624 80.9093 31.624C83.5333 31.624 85.1333 30.408 85.1333 28.456C85.1333 26.536 83.6293 26.056 82.7333 25.896L78.9893 25.16C75.9173 24.552 74.7333 22.952 74.7333 20.936C74.7333 17.896 77.1333 16.136 80.7493 16.136C84.5893 16.136 86.8293 18.152 86.8613 21.128H84.9413C84.8453 18.824 83.2773 17.8 80.7812 17.8C78.1573 17.8 76.7812 18.952 76.7812 20.712C76.7812 22.856 78.7653 23.208 79.6293 23.368L83.0533 24.008C86.0933 24.584 87.2773 26.248 87.2773 28.552C87.2773 31.4 84.7493 33.32 80.9413 33.32C76.8773 33.32 74.3813 31.208 74.3813 28.04H76.3013ZM102.955 33L97.099 24.328L93.963 27.464V33H91.947V9.672H93.963V24.936L102.315 16.456H104.971L98.507 22.92L105.291 33H102.955ZM106.22 16.456H108.46L111.66 25.096L113.452 30.344H113.644L115.34 25.096L118.252 16.456H120.46L114.508 33.224C113.868 35.048 112.62 38.664 108.62 38.664C108.3 38.664 107.852 38.632 107.404 38.536V36.712C107.788 36.776 108.204 36.808 108.46 36.808C110.796 36.808 111.724 34.888 112.14 33.8L112.556 32.776L106.22 16.456Z"/>
</mask>
<path d="M56.376 9.672V11.688H48.856V33H46.776V11.688H39.16V9.672H56.376ZM69.974 16.456V33H68.31L67.99 29.928H67.766C66.87 31.912 64.694 33.32 62.038 33.32C58.774 33.32 56.566 31.176 56.566 27.08V16.456H58.582V26.856C58.582 29.96 59.99 31.432 62.55 31.432C65.846 31.432 67.958 28.872 67.958 25.096V16.456H69.974ZM76.3013 28.04C76.3013 30.184 78.0293 31.624 80.9093 31.624C83.5333 31.624 85.1333 30.408 85.1333 28.456C85.1333 26.536 83.6293 26.056 82.7333 25.896L78.9893 25.16C75.9173 24.552 74.7333 22.952 74.7333 20.936C74.7333 17.896 77.1333 16.136 80.7493 16.136C84.5893 16.136 86.8293 18.152 86.8613 21.128H84.9413C84.8453 18.824 83.2773 17.8 80.7812 17.8C78.1573 17.8 76.7812 18.952 76.7812 20.712C76.7812 22.856 78.7653 23.208 79.6293 23.368L83.0533 24.008C86.0933 24.584 87.2773 26.248 87.2773 28.552C87.2773 31.4 84.7493 33.32 80.9413 33.32C76.8773 33.32 74.3813 31.208 74.3813 28.04H76.3013ZM102.955 33L97.099 24.328L93.963 27.464V33H91.947V9.672H93.963V24.936L102.315 16.456H104.971L98.507 22.92L105.291 33H102.955ZM106.22 16.456H108.46L111.66 25.096L113.452 30.344H113.644L115.34 25.096L118.252 16.456H120.46L114.508 33.224C113.868 35.048 112.62 38.664 108.62 38.664C108.3 38.664 107.852 38.632 107.404 38.536V36.712C107.788 36.776 108.204 36.808 108.46 36.808C110.796 36.808 111.724 34.888 112.14 33.8L112.556 32.776L106.22 16.456Z" fill="black"/>
<path d="M56.376 9.672H56.876V9.172H56.376V9.672ZM56.376 11.688V12.188H56.876V11.688H56.376ZM48.856 11.688V11.188H48.356V11.688H48.856ZM48.856 33V33.5H49.356V33H48.856ZM46.776 33H46.276V33.5H46.776V33ZM46.776 11.688H47.276V11.188H46.776V11.688ZM39.16 11.688H38.66V12.188H39.16V11.688ZM39.16 9.672V9.172H38.66V9.672H39.16ZM55.876 9.672V11.688H56.876V9.672H55.876ZM56.376 11.188H48.856V12.188H56.376V11.188ZM48.356 11.688V33H49.356V11.688H48.356ZM48.856 32.5H46.776V33.5H48.856V32.5ZM47.276 33V11.688H46.276V33H47.276ZM46.776 11.188H39.16V12.188H46.776V11.188ZM39.66 11.688V9.672H38.66V11.688H39.66ZM39.16 10.172H56.376V9.172H39.16V10.172ZM69.974 16.456H70.474V15.956H69.974V16.456ZM69.974 33V33.5H70.474V33H69.974ZM68.31 33L67.8127 33.0518L67.8594 33.5H68.31V33ZM67.99 29.928L68.4873 29.8762L68.4406 29.428H67.99V29.928ZM67.766 29.928V29.428H67.4432L67.3103 29.7222L67.766 29.928ZM56.566 16.456V15.956H56.066V16.456H56.566ZM58.582 16.456H59.082V15.956H58.582V16.456ZM67.958 16.456V15.956H67.458V16.456H67.958ZM69.474 16.456V33H70.474V16.456H69.474ZM69.974 32.5H68.31V33.5H69.974V32.5ZM68.8073 32.9482L68.4873 29.8762L67.4927 29.9798L67.8127 33.0518L68.8073 32.9482ZM67.99 29.428H67.766V30.428H67.99V29.428ZM67.3103 29.7222C66.504 31.5076 64.5198 32.82 62.038 32.82V33.82C64.8682 33.82 67.236 32.3164 68.2217 30.1338L67.3103 29.7222ZM62.038 32.82C60.519 32.82 59.295 32.3244 58.4467 31.3983C57.5938 30.4672 57.066 29.0412 57.066 27.08H56.066C56.066 29.2148 56.6422 30.9088 57.7093 32.0737C58.781 33.2436 60.293 33.82 62.038 33.82V32.82ZM57.066 27.08V16.456H56.066V27.08H57.066ZM56.566 16.956H58.582V15.956H56.566V16.956ZM58.082 16.456V26.856H59.082V16.456H58.082ZM58.082 26.856C58.082 28.4739 58.4479 29.7578 59.2323 30.6402C60.0262 31.5334 61.1737 31.932 62.55 31.932V30.932C61.3663 30.932 60.5298 30.5946 59.9797 29.9758C59.4201 29.3462 59.082 28.3421 59.082 26.856H58.082ZM62.55 31.932C64.3377 31.932 65.8322 31.2327 66.8719 30.0028C67.9046 28.781 68.458 27.0739 68.458 25.096H67.458C67.458 26.8941 66.9554 28.355 66.1082 29.3572C65.2678 30.3513 64.0583 30.932 62.55 30.932V31.932ZM68.458 25.096V16.456H67.458V25.096H68.458ZM67.958 16.956H69.974V15.956H67.958V16.956ZM76.3013 28.04H76.8013V27.54H76.3013V28.04ZM82.7332 25.896L82.6368 26.3867L82.6454 26.3882L82.7332 25.896ZM78.9893 25.16L78.8922 25.6505L78.8928 25.6506L78.9893 25.16ZM86.8613 21.128V21.628H87.3667L87.3612 21.1226L86.8613 21.128ZM84.9412 21.128L84.4417 21.1488L84.4617 21.628H84.9412V21.128ZM79.6292 23.368L79.7211 22.8765L79.7203 22.8764L79.6292 23.368ZM83.0532 24.008L83.1463 23.5167L83.1451 23.5165L83.0532 24.008ZM74.3812 28.04V27.54H73.8812V28.04H74.3812ZM75.8013 28.04C75.8013 29.2591 76.2987 30.3016 77.2146 31.0278C78.1189 31.7448 79.3913 32.124 80.9092 32.124V31.124C79.5472 31.124 78.5156 30.7832 77.8359 30.2442C77.1678 29.7144 76.8013 28.9649 76.8013 28.04H75.8013ZM80.9092 32.124C82.2911 32.124 83.4648 31.8047 84.306 31.1715C85.1629 30.5264 85.6333 29.5847 85.6333 28.456H84.6333C84.6333 29.2793 84.3036 29.9216 83.7045 30.3725C83.0897 30.8353 82.1514 31.124 80.9092 31.124V32.124ZM85.6333 28.456C85.6333 27.3421 85.1864 26.5964 84.5764 26.1215C83.9922 25.6666 83.2959 25.4886 82.8211 25.4038L82.6454 26.3882C83.0666 26.4634 83.5703 26.6054 83.9621 26.9105C84.3281 27.1956 84.6333 27.6499 84.6333 28.456H85.6333ZM82.8297 25.4054L79.0857 24.6694L78.8928 25.6506L82.6368 26.3866L82.8297 25.4054ZM79.0863 24.6695C77.6158 24.3785 76.6608 23.8623 76.0746 23.2347C75.4957 22.6149 75.2332 21.8404 75.2332 20.936H74.2332C74.2332 22.0476 74.5628 23.0811 75.3439 23.9173C76.1177 24.7457 77.2907 25.3335 78.8922 25.6505L79.0863 24.6695ZM75.2332 20.936C75.2332 19.562 75.7684 18.5107 76.6926 17.7904C77.6315 17.0586 79.0156 16.636 80.7493 16.636V15.636C78.8669 15.636 77.243 16.0934 76.0779 17.0016C74.8981 17.9213 74.2332 19.27 74.2332 20.936H75.2332ZM80.7493 16.636C82.5856 16.636 83.9808 17.1178 84.9119 17.899C85.8345 18.6732 86.3467 19.7783 86.3613 21.1334L87.3612 21.1226C87.3438 19.5017 86.72 18.1108 85.5546 17.133C84.3977 16.1622 82.7529 15.636 80.7493 15.636V16.636ZM86.8613 20.628H84.9412V21.628H86.8613V20.628ZM85.4408 21.1072C85.3878 19.8354 84.9197 18.8522 84.0637 18.2019C83.2272 17.5663 82.0871 17.3 80.7812 17.3V18.3C81.9714 18.3 82.8633 18.5457 83.4588 18.9981C84.0348 19.4358 84.3987 20.1166 84.4417 21.1488L85.4408 21.1072ZM80.7812 17.3C79.4047 17.3 78.2843 17.6011 77.4957 18.1971C76.6895 18.8066 76.2812 19.6872 76.2812 20.712H77.2812C77.2812 19.9768 77.561 19.4014 78.0988 18.9949C78.6542 18.5749 79.5338 18.3 80.7812 18.3V17.3ZM76.2812 20.712C76.2812 21.9772 76.8846 22.7526 77.617 23.2085C78.3129 23.6417 79.1173 23.7817 79.5382 23.8596L79.7203 22.8764C79.2772 22.7943 78.6576 22.6783 78.1455 22.3595C77.6699 22.0634 77.2812 21.5908 77.2812 20.712H76.2812ZM79.5374 23.8595L82.9614 24.4995L83.1451 23.5165L79.7211 22.8765L79.5374 23.8595ZM82.9602 24.4993C84.4083 24.7736 85.348 25.2944 85.9282 25.9604C86.5052 26.6228 86.7773 27.4869 86.7773 28.552H87.7773C87.7773 27.3131 87.4573 26.1932 86.6823 25.3036C85.9105 24.4176 84.7382 23.8184 83.1463 23.5167L82.9602 24.4993ZM86.7773 28.552C86.7773 29.8117 86.2249 30.8588 85.2361 31.6049C84.2361 32.3593 82.7667 32.82 80.9412 32.82V33.82C82.9238 33.82 84.6224 33.3207 85.8384 32.4031C87.0656 31.4772 87.7773 30.1403 87.7773 28.552H86.7773ZM80.9412 32.82C78.9913 32.82 77.4734 32.3133 76.4534 31.4807C75.4434 30.6563 74.8812 29.4813 74.8812 28.04H73.8812C73.8812 29.7667 74.5671 31.2317 75.8211 32.2553C77.0651 33.2707 78.8272 33.82 80.9412 33.82V32.82ZM74.3812 28.54H76.3013V27.54H74.3812V28.54ZM102.955 33L102.541 33.2798L102.689 33.5H102.955V33ZM97.099 24.328L97.5134 24.0482L97.1741 23.5458L96.7454 23.9744L97.099 24.328ZM93.963 27.464L93.6094 27.1104L93.463 27.2569V27.464H93.963ZM93.963 33V33.5H94.463V33H93.963ZM91.947 33H91.447V33.5H91.947V33ZM91.947 9.672V9.172H91.447V9.672H91.947ZM93.963 9.672H94.463V9.172H93.963V9.672ZM93.963 24.936H93.463V26.1562L94.3192 25.2869L93.963 24.936ZM102.315 16.456V15.956H102.106L101.959 16.1051L102.315 16.456ZM104.971 16.456L105.325 16.8096L106.178 15.956H104.971V16.456ZM98.507 22.92L98.1534 22.5664L97.8623 22.8576L98.0922 23.1992L98.507 22.92ZM105.291 33V33.5H106.23L105.706 32.7208L105.291 33ZM103.369 32.7202L97.5134 24.0482L96.6846 24.6078L102.541 33.2798L103.369 32.7202ZM96.7454 23.9744L93.6094 27.1104L94.3166 27.8176L97.4526 24.6816L96.7454 23.9744ZM93.463 27.464V33H94.463V27.464H93.463ZM93.963 32.5H91.947V33.5H93.963V32.5ZM92.447 33V9.672H91.447V33H92.447ZM91.947 10.172H93.963V9.172H91.947V10.172ZM93.463 9.672V24.936H94.463V9.672H93.463ZM94.3192 25.2869L102.671 16.8069L101.959 16.1051L93.6068 24.5851L94.3192 25.2869ZM102.315 16.956H104.971V15.956H102.315V16.956ZM104.617 16.1024L98.1534 22.5664L98.8606 23.2736L105.325 16.8096L104.617 16.1024ZM98.0922 23.1992L104.876 33.2792L105.706 32.7208L98.9218 22.6408L98.0922 23.1992ZM105.291 32.5H102.955V33.5H105.291V32.5ZM106.22 16.456V15.956H105.49L105.754 16.637L106.22 16.456ZM108.46 16.456L108.929 16.2823L108.808 15.956H108.46V16.456ZM111.66 25.096L112.134 24.9344L112.129 24.9223L111.66 25.096ZM113.452 30.344L112.979 30.5056L113.095 30.844H113.452V30.344ZM113.644 30.344V30.844H114.008L114.12 30.4978L113.644 30.344ZM115.34 25.096L114.866 24.9363L114.864 24.9422L115.34 25.096ZM118.252 16.456V15.956H117.893L117.778 16.2963L118.252 16.456ZM120.46 16.456L120.931 16.6233L121.168 15.956H120.46V16.456ZM114.508 33.224L114.037 33.0567L114.036 33.0585L114.508 33.224ZM107.404 38.536H106.904V38.9402L107.299 39.0249L107.404 38.536ZM107.404 36.712L107.486 36.2188L106.904 36.1218V36.712H107.404ZM112.14 33.8L111.677 33.6118L111.673 33.6214L112.14 33.8ZM112.556 32.776L113.019 32.9642L113.094 32.7802L113.022 32.595L112.556 32.776ZM106.22 16.956H108.46V15.956H106.22V16.956ZM107.991 16.6297L111.191 25.2697L112.129 24.9223L108.929 16.2823L107.991 16.6297ZM111.187 25.2576L112.979 30.5056L113.925 30.1824L112.133 24.9344L111.187 25.2576ZM113.452 30.844H113.644V29.844H113.452V30.844ZM114.12 30.4978L115.816 25.2498L114.864 24.9422L113.168 30.1902L114.12 30.4978ZM115.814 25.2557L118.726 16.6157L117.778 16.2963L114.866 24.9363L115.814 25.2557ZM118.252 16.956H120.46V15.956H118.252V16.956ZM119.989 16.2887L114.037 33.0567L114.979 33.3913L120.931 16.6233L119.989 16.2887ZM114.036 33.0585C113.713 33.9793 113.265 35.2613 112.432 36.3185C111.616 37.3532 110.44 38.164 108.62 38.164V39.164C110.8 39.164 112.248 38.1668 113.217 36.9375C114.168 35.7307 114.663 34.2927 114.98 33.3895L114.036 33.0585ZM108.62 38.164C108.329 38.164 107.917 38.1344 107.509 38.0471L107.299 39.0249C107.788 39.1296 108.272 39.164 108.62 39.164V38.164ZM107.904 38.536V36.712H106.904V38.536H107.904ZM107.322 37.2052C107.73 37.2733 108.174 37.308 108.46 37.308V36.308C108.235 36.308 107.846 36.2787 107.486 36.2188L107.322 37.2052ZM108.46 37.308C111.15 37.308 112.189 35.0725 112.607 33.9786L111.673 33.6214C111.259 34.7035 110.443 36.308 108.46 36.308V37.308ZM112.603 33.9882L113.019 32.9642L112.093 32.5878L111.677 33.6118L112.603 33.9882ZM113.022 32.595L106.686 16.275L105.754 16.637L112.09 32.957L113.022 32.595Z" fill="black" mask="url(#path-1-outside-1_13_25)"/>
<path d="M3.75822 6.59935L2.84795 10.8226L1.74342 8.28028C1.52022 9.15272 1.50945 10.1334 1.59337 11.0128C2.07206 15.8345 6.15859 21.49 11.5726 26.2349C12.5637 25.2073 13.5312 24.1571 14.4591 23.0939C14.8986 22.5902 15.3292 22.0834 15.7493 21.5749C11.9433 16.8551 9.0426 12.0092 8.29978 7.74816C8.04023 7.03221 7.29135 6.78729 6.65004 6.62925L7.39319 7.90981L5.37548 6.46316C4.83143 6.45097 4.23994 6.50209 3.75822 6.59935ZM27.6112 6.46354C27.423 7.3557 27.2414 8.24793 26.6415 9.14009C26.6309 8.24284 26.5066 7.40243 26.1351 6.68558C25.5897 6.85593 24.8122 7.1686 24.6984 7.74816C23.8352 12.6997 20.0592 18.4413 15.3333 23.8567C11.1391 28.6627 6.18643 33.1839 1.77938 36.5405C6.99428 35.7653 13.6783 32.4206 19.3465 27.9627C21.1405 26.5516 22.831 25.0291 24.348 23.4493C23.9145 23.5218 23.4704 23.5544 23.0402 23.5634L26.8073 20.6421C29.3843 17.3912 31.1045 14.0378 31.4047 11.0128C31.4637 10.4192 31.4929 9.54782 31.3634 8.76948C31.2338 7.99108 30.9453 7.35596 30.5092 7.06979C29.95 6.70286 28.9602 6.47875 27.9583 6.46071C27.8426 6.45848 27.7269 6.45942 27.6112 6.46354ZM21.3559 27.8258C20.9304 28.1818 20.4996 28.5315 20.0636 28.8745C19.2408 29.5217 18.4 30.1457 17.5422 30.7459C19.0198 31.7052 20.5256 32.5769 22.0224 33.3401C23.2674 33.4886 24.512 33.6398 25.7563 33.7939C25.3995 34.1362 24.9884 34.3663 24.5355 34.5217C26.8897 35.5329 29.1679 36.2356 31.2189 36.5405C28.0516 34.1282 24.6026 31.1145 21.3559 27.8258Z" fill="black" stroke="black" stroke-width="0.0644531"/>
</svg>
